<mxfile host="app.diagrams.net" modified="2022-03-30T14:47:17.320Z" agent="5.0 (Windows)" etag="WNsufiuGWqLpfnLJQ0KV" version="17.2.5" type="github">
  <diagram name="Page-1" id="e7e014a7-5840-1c2e-5031-d8a46d1fe8dd">
    <mxGraphModel dx="1422" dy="729" grid="1" gridSize="10" guides="1" tooltips="1" connect="1" arrows="1" fold="1" page="1" pageScale="1" pageWidth="1169" pageHeight="826" background="none" math="0" shadow="0">
      <root>
        <mxCell id="0" />
        <mxCell id="1" parent="0" />
        <mxCell id="BXgSldELhnN73ypt3k_T-41" value="&lt;div style=&quot;font-size: 14px&quot;&gt;&lt;b&gt;Main&lt;/b&gt;&lt;/div&gt;" style="rounded=1;whiteSpace=wrap;html=1;fontSize=12;" parent="1" vertex="1">
          <mxGeometry x="140" y="60" width="120" height="60" as="geometry" />
        </mxCell>
        <mxCell id="BXgSldELhnN73ypt3k_T-42" value="&lt;b&gt;&lt;font style=&quot;font-size: 14px&quot;&gt;Machine&lt;/font&gt;&lt;/b&gt;" style="rounded=1;whiteSpace=wrap;html=1;fontSize=12;" parent="1" vertex="1">
          <mxGeometry x="390" y="150" width="120" height="60" as="geometry" />
        </mxCell>
        <mxCell id="BXgSldELhnN73ypt3k_T-44" value="&lt;font size=&quot;1&quot;&gt;&lt;b style=&quot;font-size: 14px&quot;&gt;FuelTank&lt;/b&gt;&lt;/font&gt;" style="rounded=1;whiteSpace=wrap;html=1;fontSize=12;" parent="1" vertex="1">
          <mxGeometry x="655" y="210" width="120" height="60" as="geometry" />
        </mxCell>
        <mxCell id="BXgSldELhnN73ypt3k_T-45" value="&lt;b&gt;&lt;font style=&quot;font-size: 14px&quot;&gt;Engine&lt;/font&gt;&lt;/b&gt;" style="rounded=1;whiteSpace=wrap;html=1;fontSize=12;" parent="1" vertex="1">
          <mxGeometry x="915" y="300" width="120" height="60" as="geometry" />
        </mxCell>
        <mxCell id="BXgSldELhnN73ypt3k_T-46" value="&lt;div style=&quot;font-size: 14px&quot;&gt;&lt;b&gt;Main&lt;/b&gt;&lt;/div&gt;" style="rounded=1;whiteSpace=wrap;html=1;fontSize=12;" parent="1" vertex="1">
          <mxGeometry x="140" y="730" width="120" height="60" as="geometry" />
        </mxCell>
        <mxCell id="BXgSldELhnN73ypt3k_T-47" value="&lt;b&gt;&lt;font style=&quot;font-size: 14px&quot;&gt;Machine&lt;/font&gt;&lt;/b&gt;" style="rounded=1;whiteSpace=wrap;html=1;fontSize=12;" parent="1" vertex="1">
          <mxGeometry x="390" y="730" width="120" height="60" as="geometry" />
        </mxCell>
        <mxCell id="BXgSldELhnN73ypt3k_T-48" value="&lt;font size=&quot;1&quot;&gt;&lt;b style=&quot;font-size: 14px&quot;&gt;FuelTank&lt;/b&gt;&lt;/font&gt;" style="rounded=1;whiteSpace=wrap;html=1;fontSize=12;" parent="1" vertex="1">
          <mxGeometry x="655" y="730" width="120" height="60" as="geometry" />
        </mxCell>
        <mxCell id="BXgSldELhnN73ypt3k_T-49" value="&lt;b&gt;&lt;font style=&quot;font-size: 14px&quot;&gt;Engine&lt;/font&gt;&lt;/b&gt;" style="rounded=1;whiteSpace=wrap;html=1;fontSize=12;" parent="1" vertex="1">
          <mxGeometry x="915" y="730" width="120" height="60" as="geometry" />
        </mxCell>
        <mxCell id="BXgSldELhnN73ypt3k_T-50" value="" style="endArrow=none;html=1;rounded=0;fontSize=14;entryX=0.5;entryY=1;entryDx=0;entryDy=0;exitX=0.5;exitY=0;exitDx=0;exitDy=0;" parent="1" source="BXgSldELhnN73ypt3k_T-46" target="BXgSldELhnN73ypt3k_T-41" edge="1">
          <mxGeometry width="50" height="50" relative="1" as="geometry">
            <mxPoint x="750" y="430" as="sourcePoint" />
            <mxPoint x="800" y="380" as="targetPoint" />
          </mxGeometry>
        </mxCell>
        <mxCell id="BXgSldELhnN73ypt3k_T-51" value="" style="endArrow=none;html=1;rounded=0;fontSize=14;entryX=0.5;entryY=1;entryDx=0;entryDy=0;exitX=0.5;exitY=0;exitDx=0;exitDy=0;startArrow=none;" parent="1" source="BXgSldELhnN73ypt3k_T-68" target="BXgSldELhnN73ypt3k_T-42" edge="1">
          <mxGeometry width="50" height="50" relative="1" as="geometry">
            <mxPoint x="480" y="690" as="sourcePoint" />
            <mxPoint x="470" y="210" as="targetPoint" />
          </mxGeometry>
        </mxCell>
        <mxCell id="BXgSldELhnN73ypt3k_T-52" value="" style="endArrow=none;html=1;rounded=0;fontSize=14;entryX=0.5;entryY=1;entryDx=0;entryDy=0;exitX=0.5;exitY=0;exitDx=0;exitDy=0;" parent="1" source="BXgSldELhnN73ypt3k_T-48" target="BXgSldELhnN73ypt3k_T-44" edge="1">
          <mxGeometry width="50" height="50" relative="1" as="geometry">
            <mxPoint x="640" y="717.9999999999998" as="sourcePoint" />
            <mxPoint x="640" y="108" as="targetPoint" />
          </mxGeometry>
        </mxCell>
        <mxCell id="BXgSldELhnN73ypt3k_T-53" value="" style="endArrow=none;html=1;rounded=0;fontSize=14;entryX=0.5;entryY=1;entryDx=0;entryDy=0;exitX=0.5;exitY=0;exitDx=0;exitDy=0;startArrow=none;" parent="1" source="BXgSldELhnN73ypt3k_T-72" target="BXgSldELhnN73ypt3k_T-45" edge="1">
          <mxGeometry width="50" height="50" relative="1" as="geometry">
            <mxPoint x="890" y="739.9999999999998" as="sourcePoint" />
            <mxPoint x="890" y="130" as="targetPoint" />
          </mxGeometry>
        </mxCell>
        <mxCell id="BXgSldELhnN73ypt3k_T-54" value="" style="endArrow=classic;html=1;rounded=0;fontSize=14;entryX=0;entryY=0.5;entryDx=0;entryDy=0;" parent="1" target="BXgSldELhnN73ypt3k_T-42" edge="1">
          <mxGeometry width="50" height="50" relative="1" as="geometry">
            <mxPoint x="200" y="180" as="sourcePoint" />
            <mxPoint x="380" y="180" as="targetPoint" />
          </mxGeometry>
        </mxCell>
        <mxCell id="BXgSldELhnN73ypt3k_T-55" value="auto = Machine()" style="edgeLabel;html=1;align=center;verticalAlign=middle;resizable=0;points=[];fontSize=14;" parent="BXgSldELhnN73ypt3k_T-54" vertex="1" connectable="0">
          <mxGeometry x="-0.7094" relative="1" as="geometry">
            <mxPoint x="72" as="offset" />
          </mxGeometry>
        </mxCell>
        <mxCell id="BXgSldELhnN73ypt3k_T-56" value="" style="endArrow=classic;html=1;rounded=0;fontSize=14;entryX=0;entryY=0.5;entryDx=0;entryDy=0;" parent="1" target="BXgSldELhnN73ypt3k_T-44" edge="1">
          <mxGeometry width="50" height="50" relative="1" as="geometry">
            <mxPoint x="450" y="240" as="sourcePoint" />
            <mxPoint x="600" y="300" as="targetPoint" />
          </mxGeometry>
        </mxCell>
        <mxCell id="BXgSldELhnN73ypt3k_T-57" value="self._tank = FuelTank()" style="edgeLabel;html=1;align=center;verticalAlign=middle;resizable=0;points=[];fontSize=14;" parent="BXgSldELhnN73ypt3k_T-56" vertex="1" connectable="0">
          <mxGeometry x="-0.2911" relative="1" as="geometry">
            <mxPoint x="27" as="offset" />
          </mxGeometry>
        </mxCell>
        <mxCell id="BXgSldELhnN73ypt3k_T-58" value="" style="endArrow=classic;html=1;rounded=0;fontSize=14;" parent="1" edge="1">
          <mxGeometry width="50" height="50" relative="1" as="geometry">
            <mxPoint x="450" y="290" as="sourcePoint" />
            <mxPoint x="715" y="290" as="targetPoint" />
          </mxGeometry>
        </mxCell>
        <mxCell id="BXgSldELhnN73ypt3k_T-59" value="self._tank.fill(40)" style="edgeLabel;html=1;align=center;verticalAlign=middle;resizable=0;points=[];fontSize=14;" parent="BXgSldELhnN73ypt3k_T-58" vertex="1" connectable="0">
          <mxGeometry x="-0.0917" relative="1" as="geometry">
            <mxPoint as="offset" />
          </mxGeometry>
        </mxCell>
        <mxCell id="BXgSldELhnN73ypt3k_T-60" value="" style="endArrow=classic;html=1;rounded=0;fontSize=14;entryX=0;entryY=0.5;entryDx=0;entryDy=0;" parent="1" target="BXgSldELhnN73ypt3k_T-45" edge="1">
          <mxGeometry width="50" height="50" relative="1" as="geometry">
            <mxPoint x="450" y="330" as="sourcePoint" />
            <mxPoint x="715" y="330" as="targetPoint" />
          </mxGeometry>
        </mxCell>
        <mxCell id="BXgSldELhnN73ypt3k_T-61" value="self._engine = Engine(self._tank)" style="edgeLabel;html=1;align=center;verticalAlign=middle;resizable=0;points=[];fontSize=14;" parent="BXgSldELhnN73ypt3k_T-60" vertex="1" connectable="0">
          <mxGeometry x="-0.0917" relative="1" as="geometry">
            <mxPoint x="9" as="offset" />
          </mxGeometry>
        </mxCell>
        <mxCell id="BXgSldELhnN73ypt3k_T-68" value="" style="rounded=0;whiteSpace=wrap;html=1;fontSize=14;" parent="1" vertex="1">
          <mxGeometry x="445" y="370" width="10" height="240" as="geometry" />
        </mxCell>
        <mxCell id="BXgSldELhnN73ypt3k_T-65" value="" style="endArrow=classic;html=1;rounded=0;fontSize=14;" parent="1" edge="1">
          <mxGeometry width="50" height="50" relative="1" as="geometry">
            <mxPoint x="200" y="370" as="sourcePoint" />
            <mxPoint x="450" y="370" as="targetPoint" />
          </mxGeometry>
        </mxCell>
        <mxCell id="BXgSldELhnN73ypt3k_T-66" value="auto.drive()" style="edgeLabel;html=1;align=center;verticalAlign=middle;resizable=0;points=[];fontSize=14;" parent="BXgSldELhnN73ypt3k_T-65" vertex="1" connectable="0">
          <mxGeometry x="-0.248" relative="1" as="geometry">
            <mxPoint x="16" as="offset" />
          </mxGeometry>
        </mxCell>
        <mxCell id="BXgSldELhnN73ypt3k_T-69" value="" style="endArrow=none;html=1;rounded=0;fontSize=14;entryX=0.5;entryY=1;entryDx=0;entryDy=0;exitX=0.5;exitY=0;exitDx=0;exitDy=0;" parent="1" source="BXgSldELhnN73ypt3k_T-47" target="BXgSldELhnN73ypt3k_T-68" edge="1">
          <mxGeometry width="50" height="50" relative="1" as="geometry">
            <mxPoint x="450" y="730" as="sourcePoint" />
            <mxPoint x="450" y="210" as="targetPoint" />
          </mxGeometry>
        </mxCell>
        <mxCell id="BXgSldELhnN73ypt3k_T-72" value="" style="rounded=0;whiteSpace=wrap;html=1;fontSize=14;" parent="1" vertex="1">
          <mxGeometry x="970" y="400" width="10" height="60" as="geometry" />
        </mxCell>
        <mxCell id="BXgSldELhnN73ypt3k_T-71" value="" style="endArrow=classic;html=1;rounded=0;fontSize=14;entryX=-0.278;entryY=0.074;entryDx=0;entryDy=0;entryPerimeter=0;exitX=1.22;exitY=0.114;exitDx=0;exitDy=0;exitPerimeter=0;" parent="1" source="BXgSldELhnN73ypt3k_T-68" target="BXgSldELhnN73ypt3k_T-72" edge="1">
          <mxGeometry width="50" height="50" relative="1" as="geometry">
            <mxPoint x="450" y="410" as="sourcePoint" />
            <mxPoint x="970" y="407" as="targetPoint" />
          </mxGeometry>
        </mxCell>
        <mxCell id="BXgSldELhnN73ypt3k_T-81" value="self._engine.start()" style="edgeLabel;html=1;align=center;verticalAlign=middle;resizable=0;points=[];fontSize=14;" parent="BXgSldELhnN73ypt3k_T-71" vertex="1" connectable="0">
          <mxGeometry x="-0.501" y="1" relative="1" as="geometry">
            <mxPoint as="offset" />
          </mxGeometry>
        </mxCell>
        <mxCell id="BXgSldELhnN73ypt3k_T-73" value="" style="endArrow=none;html=1;rounded=0;fontSize=14;entryX=0.5;entryY=1;entryDx=0;entryDy=0;exitX=0.5;exitY=0;exitDx=0;exitDy=0;startArrow=none;" parent="1" source="BXgSldELhnN73ypt3k_T-79" target="BXgSldELhnN73ypt3k_T-72" edge="1">
          <mxGeometry width="50" height="50" relative="1" as="geometry">
            <mxPoint x="975" y="730" as="sourcePoint" />
            <mxPoint x="975" y="360" as="targetPoint" />
          </mxGeometry>
        </mxCell>
        <mxCell id="BXgSldELhnN73ypt3k_T-78" value="" style="endArrow=classic;html=1;rounded=0;fontSize=14;entryX=-0.238;entryY=0.083;entryDx=0;entryDy=0;entryPerimeter=0;exitX=0.98;exitY=0.689;exitDx=0;exitDy=0;exitPerimeter=0;" parent="1" source="BXgSldELhnN73ypt3k_T-68" target="BXgSldELhnN73ypt3k_T-79" edge="1">
          <mxGeometry width="50" height="50" relative="1" as="geometry">
            <mxPoint x="460" y="540" as="sourcePoint" />
            <mxPoint x="950" y="535" as="targetPoint" />
          </mxGeometry>
        </mxCell>
        <mxCell id="BXgSldELhnN73ypt3k_T-82" value="running = self.engine.is_runnig()" style="edgeLabel;html=1;align=center;verticalAlign=middle;resizable=0;points=[];fontSize=14;" parent="BXgSldELhnN73ypt3k_T-78" vertex="1" connectable="0">
          <mxGeometry x="-0.8478" relative="1" as="geometry">
            <mxPoint x="91" as="offset" />
          </mxGeometry>
        </mxCell>
        <mxCell id="BXgSldELhnN73ypt3k_T-79" value="" style="rounded=0;whiteSpace=wrap;html=1;fontSize=14;" parent="1" vertex="1">
          <mxGeometry x="970" y="530" width="10" height="120" as="geometry" />
        </mxCell>
        <mxCell id="BXgSldELhnN73ypt3k_T-80" value="" style="endArrow=none;html=1;rounded=0;fontSize=14;entryX=0.5;entryY=1;entryDx=0;entryDy=0;exitX=0.5;exitY=0;exitDx=0;exitDy=0;" parent="1" source="BXgSldELhnN73ypt3k_T-49" target="BXgSldELhnN73ypt3k_T-79" edge="1">
          <mxGeometry width="50" height="50" relative="1" as="geometry">
            <mxPoint x="975" y="730" as="sourcePoint" />
            <mxPoint x="975" y="460" as="targetPoint" />
          </mxGeometry>
        </mxCell>
        <mxCell id="BXgSldELhnN73ypt3k_T-83" value="" style="endArrow=none;dashed=1;html=1;dashPattern=1 3;strokeWidth=2;rounded=0;fontSize=14;entryX=-0.08;entryY=0.325;entryDx=0;entryDy=0;entryPerimeter=0;exitX=0.98;exitY=0.823;exitDx=0;exitDy=0;exitPerimeter=0;" parent="1" source="BXgSldELhnN73ypt3k_T-68" target="BXgSldELhnN73ypt3k_T-79" edge="1">
          <mxGeometry width="50" height="50" relative="1" as="geometry">
            <mxPoint x="460" y="560" as="sourcePoint" />
            <mxPoint x="970" y="550" as="targetPoint" />
          </mxGeometry>
        </mxCell>
        <mxCell id="BXgSldELhnN73ypt3k_T-84" value="True" style="edgeLabel;html=1;align=center;verticalAlign=middle;resizable=0;points=[];fontSize=14;" parent="BXgSldELhnN73ypt3k_T-83" vertex="1" connectable="0">
          <mxGeometry x="0.2875" y="-3" relative="1" as="geometry">
            <mxPoint x="35" y="-6" as="offset" />
          </mxGeometry>
        </mxCell>
        <mxCell id="BXgSldELhnN73ypt3k_T-86" value="" style="endArrow=classic;html=1;rounded=0;fontSize=14;exitX=0;exitY=0.75;exitDx=0;exitDy=0;" parent="1" source="BXgSldELhnN73ypt3k_T-72" edge="1">
          <mxGeometry width="50" height="50" relative="1" as="geometry">
            <mxPoint x="610" y="540" as="sourcePoint" />
            <mxPoint x="720" y="445" as="targetPoint" />
          </mxGeometry>
        </mxCell>
        <mxCell id="BXgSldELhnN73ypt3k_T-87" value="self._fuel_tank.consume(5)" style="edgeLabel;html=1;align=center;verticalAlign=middle;resizable=0;points=[];fontSize=14;" parent="BXgSldELhnN73ypt3k_T-86" vertex="1" connectable="0">
          <mxGeometry x="-0.2185" y="2" relative="1" as="geometry">
            <mxPoint x="-18" as="offset" />
          </mxGeometry>
        </mxCell>
        <mxCell id="BXgSldELhnN73ypt3k_T-88" value="" style="endArrow=classic;html=1;rounded=0;fontSize=14;exitX=0;exitY=1;exitDx=0;exitDy=0;" parent="1" source="BXgSldELhnN73ypt3k_T-79" edge="1">
          <mxGeometry width="50" height="50" relative="1" as="geometry">
            <mxPoint x="610" y="520" as="sourcePoint" />
            <mxPoint x="720" y="650" as="targetPoint" />
          </mxGeometry>
        </mxCell>
        <mxCell id="BXgSldELhnN73ypt3k_T-91" value="self._fuel_tank.consume(10)" style="edgeLabel;html=1;align=center;verticalAlign=middle;resizable=0;points=[];fontSize=14;" parent="BXgSldELhnN73ypt3k_T-88" vertex="1" connectable="0">
          <mxGeometry x="-0.2128" y="1" relative="1" as="geometry">
            <mxPoint x="-22" as="offset" />
          </mxGeometry>
        </mxCell>
        <mxCell id="BXgSldELhnN73ypt3k_T-89" value="" style="endArrow=classic;html=1;rounded=0;fontSize=14;entryX=-0.535;entryY=0.59;entryDx=0;entryDy=0;exitX=1.14;exitY=0.956;exitDx=0;exitDy=0;entryPerimeter=0;exitPerimeter=0;" parent="1" source="BXgSldELhnN73ypt3k_T-68" target="BXgSldELhnN73ypt3k_T-79" edge="1">
          <mxGeometry width="50" height="50" relative="1" as="geometry">
            <mxPoint x="610" y="520" as="sourcePoint" />
            <mxPoint x="660" y="470" as="targetPoint" />
          </mxGeometry>
        </mxCell>
        <mxCell id="BXgSldELhnN73ypt3k_T-90" value="self._engine.use_energy()" style="edgeLabel;html=1;align=center;verticalAlign=middle;resizable=0;points=[];fontSize=14;" parent="BXgSldELhnN73ypt3k_T-89" vertex="1" connectable="0">
          <mxGeometry x="-0.3173" y="1" relative="1" as="geometry">
            <mxPoint x="-46" as="offset" />
          </mxGeometry>
        </mxCell>
      </root>
    </mxGraphModel>
  </diagram>
</mxfile>
